<?xml version="1.0" standalone="no"?>
<!DOCTYPE svg PUBLIC "-//W3C//DTD SVG 20010904//EN"
 "http://www.w3.org/TR/2001/REC-SVG-20010904/DTD/svg10.dtd">
<svg version="1.0" xmlns="../../external.html?link=http://www.w3.org/2000/svg"
 width="1024.000000pt" height="1024.000000pt" viewBox="0 0 1024.000000 1024.000000"
 preserveAspectRatio="xMidYMid meet">
<metadata>
Created by potrace 1.11, written by Peter Selinger 2001-2013
</metadata>
<g transform="translate(0.000000,1024.000000) scale(0.100000,-0.100000)"
fill="#000000" stroke="none">
<path d="M4858 10236 c-1 -2 -50 -6 -108 -10 -58 -4 -118 -9 -135 -10 -210
-24 -195 -22 -330 -45 -66 -11 -154 -27 -195 -36 -41 -9 -86 -18 -100 -21
-145 -28 -454 -122 -720 -219 -167 -60 -481 -210 -680 -324 -195 -111 -432
-269 -596 -396 -248 -192 -524 -452 -736 -692 -142 -162 -407 -519 -474 -638
-6 -11 -30 -51 -54 -89 -43 -71 -62 -105 -120 -211 -305 -565 -499 -1183 -575
-1830 -3 -27 -8 -63 -10 -80 -27 -197 -27 -785 0 -1025 15 -137 15 -135 36
-275 6 -38 13 -83 16 -100 3 -16 7 -39 8 -50 7 -46 38 -188 67 -300 16 -66 31
-124 32 -130 10 -42 35 -122 78 -252 l51 -152 -68 -118 c-103 -176 -114 -197
-121 -213 -3 -8 -9 -22 -14 -30 -4 -8 -32 -61 -60 -118 -45 -89 -51 -108 -46
-144 7 -47 41 -103 71 -116 29 -13 97 13 138 53 29 28 82 112 130 205 34 67
87 155 94 157 4 1 46 -75 92 -170 67 -138 184 -348 274 -491 74 -119 300 -428
373 -512 11 -12 39 -46 64 -75 147 -174 422 -444 600 -590 36 -29 67 -56 70
-59 34 -38 516 -374 580 -403 8 -4 31 -17 50 -29 356 -219 949 -459 1362 -553
13 -2 41 -9 63 -14 97 -22 297 -60 370 -71 44 -6 91 -13 105 -15 14 -3 54 -7
90 -11 36 -3 72 -8 82 -9 133 -26 865 -26 1021 0 12 2 47 6 77 10 97 10 181
22 290 41 193 34 394 81 543 125 38 11 77 22 86 24 29 6 246 83 362 129 200
78 321 134 524 241 140 74 132 70 248 140 53 33 112 69 130 80 103 63 449 317
497 365 3 3 34 30 70 60 136 115 304 279 445 434 44 49 88 97 97 107 47 50
208 258 291 374 204 286 360 561 526 929 99 218 257 700 287 876 3 14 9 39 14
55 5 17 11 44 14 60 2 17 11 66 20 110 8 44 17 94 20 110 2 17 8 50 11 74 4
24 9 58 10 75 9 80 16 143 20 161 26 129 26 860 1 1015 -2 14 -7 54 -11 90 -7
77 -12 115 -19 155 -3 17 -8 48 -11 70 -57 386 -174 786 -366 1245 -70 169
-276 549 -396 732 -37 56 -42 70 -31 80 7 7 64 60 126 117 135 124 154 142
445 424 188 183 233 232 258 282 l30 60 -43 19 c-61 27 -161 26 -213 -1 -47
-25 -74 -53 -137 -143 -59 -83 -371 -381 -559 -533 l-56 -45 -121 152 c-198
247 -428 486 -649 673 -26 23 -61 53 -78 68 -29 26 -321 245 -380 286 -57 39
-227 149 -231 149 -2 0 -32 17 -66 38 -293 178 -739 375 -1088 479 -181 54
-452 119 -570 138 -19 3 -46 8 -60 10 -46 10 -65 13 -120 20 -30 4 -62 9 -70
10 -31 6 -107 14 -185 21 -44 3 -91 8 -105 11 -29 4 -646 13 -652 9z"/>
</g>
</svg>
