<?xml version="1.0" encoding="UTF-8" standalone="no"?>
<!DOCTYPE svg PUBLIC "-//W3C//DTD SVG 1.1//EN" "http://www.w3.org/Graphics/SVG/1.1/DTD/svg11.dtd">
<svg version="1.1" xmlns="http://www.w3.org/2000/svg" xmlns:xlink="http://www.w3.org/1999/xlink" preserveAspectRatio="xMidYMid meet" viewBox="0 0 640 640" width="640" height="640"><defs><path d="M414.06 231.15L414.06 260.15L385.06 260.15L385.06 231.15L414.06 231.15Z" id="ctUWwYxEN"></path><path d="M334.94 239.99C335.14 242.46 335.89 247.52 336.07 248.72C335.01 248.72 331.31 248.72 330.78 248.72C331.44 247.4 333.91 242.39 334.94 239.99ZM316.2 261.02L324.42 261.02L327.61 254.87L337.01 254.87L338.05 261.02L346.1 261.02L340.78 231.83L340.74 231.65L331.92 231.65L316.2 261.02Z" id="f7hXTZm9R"></path><path d="M334.94 239.99C335.14 242.46 335.89 247.52 336.07 248.72C335.01 248.72 331.31 248.72 330.78 248.72C331.44 247.4 333.91 242.39 334.94 239.99ZM316.2 261.02L324.42 261.02L327.61 254.87L337.01 254.87L338.05 261.02L346.1 261.02L340.78 231.83L340.74 231.65L331.92 231.65L316.2 261.02Z" id="d33lPrVyn0"></path><path d="M305.57 248.34C304.07 244.21 298.55 231.41 298.49 231.28C298.49 231.27 298.47 231.23 298.43 231.15C297.9 231.15 295.26 231.15 290.51 231.15L285.32 260.52C289.9 260.52 292.44 260.52 292.95 260.52C294.78 250.19 295.79 244.45 295.99 243.3C297.56 247.49 302.97 260.25 303.03 260.38C303.03 260.39 303.05 260.44 303.08 260.52C303.61 260.52 306.25 260.52 311.01 260.52L316.15 231.4L316.2 231.15L308.57 231.15C306.7 241.85 305.7 247.58 305.57 248.34Z" id="bQVa2j9Xr"></path><path d="M305.57 248.34C304.07 244.21 298.55 231.41 298.49 231.28C298.49 231.27 298.47 231.23 298.43 231.15C297.9 231.15 295.26 231.15 290.51 231.15L285.32 260.52C289.9 260.52 292.44 260.52 292.95 260.52C294.78 250.19 295.79 244.45 295.99 243.3C297.56 247.49 302.97 260.25 303.03 260.38C303.03 260.39 303.05 260.44 303.08 260.52C303.61 260.52 306.25 260.52 311.01 260.52L316.15 231.4L316.2 231.15L308.57 231.15C306.7 241.85 305.7 247.58 305.57 248.34Z" id="bjT0garuo"></path><path d="M369.49 242.79C365.64 241.67 363.63 241.01 363.63 239.45C363.63 237.31 366.1 237.14 366.86 237.14C369.62 237.14 371.52 238.6 371.7 240.87C371.7 240.88 371.71 240.96 371.72 241.11C372.52 240.97 378.96 239.81 379.76 239.66C379.75 239.54 379.74 239.47 379.74 239.46C379.03 233.98 374.32 230.71 367.15 230.71C360.13 230.71 355.59 234.43 355.59 240.19C355.59 246.06 360.54 247.92 365.18 249.2C368 250 369.88 250.82 369.88 252.26C369.88 254.66 366.96 254.85 366.07 254.85C363.66 254.85 361.06 253.78 360.97 250.76C360.97 250.75 360.97 250.67 360.96 250.52C360.16 250.63 353.73 251.47 352.93 251.57C352.93 251.69 352.93 251.75 352.93 251.76C352.93 258.33 359.55 261.32 365.69 261.32C371.8 261.32 377.95 258.21 377.95 251.27C377.95 247.17 375.27 244.48 369.49 242.79" id="c67DJtmk9u"></path><path d="M369.49 242.79C365.64 241.67 363.63 241.01 363.63 239.45C363.63 237.31 366.1 237.14 366.86 237.14C369.62 237.14 371.52 238.6 371.7 240.87C371.7 240.88 371.71 240.96 371.72 241.11C372.52 240.97 378.96 239.81 379.76 239.66C379.75 239.54 379.74 239.47 379.74 239.46C379.03 233.98 374.32 230.71 367.15 230.71C360.13 230.71 355.59 234.43 355.59 240.19C355.59 246.06 360.54 247.92 365.18 249.2C368 250 369.88 250.82 369.88 252.26C369.88 254.66 366.96 254.85 366.07 254.85C363.66 254.85 361.06 253.78 360.97 250.76C360.97 250.75 360.97 250.67 360.96 250.52C360.16 250.63 353.73 251.47 352.93 251.57C352.93 251.69 352.93 251.75 352.93 251.76C352.93 258.33 359.55 261.32 365.69 261.32C371.8 261.32 377.95 258.21 377.95 251.27C377.95 247.17 375.27 244.48 369.49 242.79" id="b4gVRnRgB6"></path></defs><g><g><g><use xlink:href="#ctUWwYxEN" opacity="1" fill="#000000" fill-opacity="1"></use><g><use xlink:href="#ctUWwYxEN" opacity="1" fill-opacity="0" stroke="#000000" stroke-width="1" stroke-opacity="0"></use></g></g><g><use xlink:href="#f7hXTZm9R" opacity="1" fill="#232426" fill-opacity="1"></use><g><use xlink:href="#f7hXTZm9R" opacity="1" fill-opacity="0" stroke="#000000" stroke-width="1" stroke-opacity="0"></use></g></g><g><use xlink:href="#d33lPrVyn0" opacity="1" fill="#000000" fill-opacity="0"></use><g><use xlink:href="#d33lPrVyn0" opacity="1" fill-opacity="0" stroke="#000000" stroke-width="1" stroke-opacity="0"></use></g></g><g><use xlink:href="#bQVa2j9Xr" opacity="1" fill="#232426" fill-opacity="1"></use><g><use xlink:href="#bQVa2j9Xr" opacity="1" fill-opacity="0" stroke="#000000" stroke-width="1" stroke-opacity="0"></use></g></g><g><use xlink:href="#bjT0garuo" opacity="1" fill="#000000" fill-opacity="0"></use><g><use xlink:href="#bjT0garuo" opacity="1" fill-opacity="0" stroke="#000000" stroke-width="1" stroke-opacity="0"></use></g></g><g><use xlink:href="#c67DJtmk9u" opacity="1" fill="#232426" fill-opacity="1"></use><g><use xlink:href="#c67DJtmk9u" opacity="1" fill-opacity="0" stroke="#000000" stroke-width="1" stroke-opacity="0"></use></g></g><g><use xlink:href="#b4gVRnRgB6" opacity="1" fill="#000000" fill-opacity="0"></use><g><use xlink:href="#b4gVRnRgB6" opacity="1" fill-opacity="0" stroke="#000000" stroke-width="1" stroke-opacity="0"></use></g></g></g></g></svg>