<?xml version="1.0" encoding="UTF-8" standalone="no"?>
<!DOCTYPE svg PUBLIC "-//W3C//DTD SVG 1.1//EN" "http://www.w3.org/Graphics/SVG/1.1/DTD/svg11.dtd">
<svg version="1.1" xmlns="http://www.w3.org/2000/svg" xmlns:xlink="http://www.w3.org/1999/xlink" preserveAspectRatio="xMidYMid meet" viewBox="0 0 640 640" width="640" height="640"><defs><path d="M455.51 295.06L442.75 295.06C448.82 260.4 452.2 241.14 452.87 237.29C460.23 237.29 464.33 237.29 465.15 237.29C482.04 237.29 485.58 248.49 485.58 257.89C485.58 281.16 474.34 295.06 455.51 295.06M468.16 212.64L427.59 212.64C416.31 276.88 410.04 312.56 408.79 319.7C435.1 319.7 449.73 319.7 452.65 319.7C492.28 319.7 515.93 296.48 515.93 257.58C515.93 229.02 498.52 212.64 468.16 212.64" id="fwuWdkh4"></path><path d="M455.51 295.06L442.75 295.06C448.82 260.4 452.2 241.14 452.87 237.29C460.23 237.29 464.33 237.29 465.15 237.29C482.04 237.29 485.58 248.49 485.58 257.89C485.58 281.16 474.34 295.06 455.51 295.06M468.16 212.64L427.59 212.64C416.31 276.88 410.04 312.56 408.79 319.7C435.1 319.7 449.73 319.7 452.65 319.7C492.28 319.7 515.93 296.48 515.93 257.58C515.93 229.02 498.52 212.64 468.16 212.64" id="aH1XNfBiK"></path><path d="M455.51 295.06L442.75 295.06C448.82 260.4 452.2 241.14 452.87 237.29C460.23 237.29 464.33 237.29 465.15 237.29C482.04 237.29 485.58 248.49 485.58 257.89C485.58 281.16 474.34 295.06 455.51 295.06M468.16 212.64L427.59 212.64C416.31 276.88 410.04 312.56 408.79 319.7C435.1 319.7 449.73 319.7 452.65 319.7C492.28 319.7 515.93 296.48 515.93 257.58C515.93 229.02 498.52 212.64 468.16 212.64" id="eRamtUwYC"></path><path d="M250.15 243.02C250.84 252.04 253.57 270.48 254.23 274.87C250.4 274.87 236.97 274.87 235.05 274.87C237.43 270.05 246.39 251.77 250.15 243.02ZM182.16 319.7L211.97 319.7L223.57 297.25L257.65 297.25L261.41 319.7L290.59 319.7L271.3 213.3L271.18 212.64L239.17 212.64L182.16 319.7Z" id="b10I3vHGev"></path><path d="M250.15 243.02C250.84 252.04 253.57 270.48 254.23 274.87C250.4 274.87 236.97 274.87 235.05 274.87C237.43 270.05 246.39 251.77 250.15 243.02ZM182.16 319.7L211.97 319.7L223.57 297.25L257.65 297.25L261.41 319.7L290.59 319.7L271.3 213.3L271.18 212.64L239.17 212.64L182.16 319.7Z" id="iFL4DbBEU"></path><path d="M250.15 243.02C250.84 252.04 253.57 270.48 254.23 274.87C250.4 274.87 236.97 274.87 235.05 274.87C237.43 270.05 246.39 251.77 250.15 243.02ZM182.16 319.7L211.97 319.7L223.57 297.25L257.65 297.25L261.41 319.7L290.59 319.7L271.3 213.3L271.18 212.64L239.17 212.64L182.16 319.7Z" id="a1uBJrrKWC"></path><path d="M148.78 277.58C143.36 262.51 123.32 215.88 123.11 215.38C123.1 215.35 123.03 215.19 122.9 214.9C120.98 214.9 111.4 214.9 94.16 214.9L75.36 321.96C91.96 321.96 101.18 321.96 103.02 321.96C109.65 284.31 113.33 263.39 114.06 259.21C119.74 274.47 139.36 320.98 139.57 321.47C139.58 321.51 139.65 321.67 139.77 321.96C141.69 321.96 151.27 321.96 168.52 321.96L187.16 215.84L187.33 214.9L159.66 214.9C152.89 253.9 149.26 274.79 148.78 277.58Z" id="d4wlNDoab3"></path><path d="M148.78 277.58C143.36 262.51 123.32 215.88 123.11 215.38C123.1 215.35 123.03 215.19 122.9 214.9C120.98 214.9 111.4 214.9 94.16 214.9L75.36 321.96C91.96 321.96 101.18 321.96 103.02 321.96C109.65 284.31 113.33 263.39 114.06 259.21C119.74 274.47 139.36 320.98 139.57 321.47C139.58 321.51 139.65 321.67 139.77 321.96C141.69 321.96 151.27 321.96 168.52 321.96L187.16 215.84L187.33 214.9L159.66 214.9C152.89 253.9 149.26 274.79 148.78 277.58Z" id="a4Z7hpKem"></path><path d="M148.78 277.58C143.36 262.51 123.32 215.88 123.11 215.38C123.1 215.35 123.03 215.19 122.9 214.9C120.98 214.9 111.4 214.9 94.16 214.9L75.36 321.96C91.96 321.96 101.18 321.96 103.02 321.96C109.65 284.31 113.33 263.39 114.06 259.21C119.74 274.47 139.36 320.98 139.57 321.47C139.58 321.51 139.65 321.67 139.77 321.96C141.69 321.96 151.27 321.96 168.52 321.96L187.16 215.84L187.33 214.9L159.66 214.9C152.89 253.9 149.26 274.79 148.78 277.58Z" id="b2MbUeFofy"></path><path d="M360.33 256.67C346.36 252.59 339.07 250.19 339.07 244.48C339.07 236.69 348.03 236.08 350.77 236.08C360.8 236.08 367.7 241.41 368.35 249.66C368.35 249.72 368.38 250.01 368.42 250.54C371.34 250.01 394.66 245.81 397.58 245.28C397.52 244.83 397.49 244.58 397.49 244.53C394.93 224.56 377.86 212.64 351.82 212.64C326.37 212.64 309.92 226.2 309.92 247.19C309.92 268.59 327.87 275.37 344.68 280.05C354.91 282.95 361.72 285.95 361.72 291.18C361.72 299.95 351.15 300.63 347.91 300.63C339.18 300.63 329.74 296.72 329.43 285.74C329.43 285.68 329.42 285.38 329.41 284.85C326.5 285.23 303.19 288.3 300.28 288.68C300.28 289.1 300.28 289.33 300.28 289.37C300.28 313.32 324.27 324.22 346.55 324.22C368.69 324.22 391.02 312.89 391.02 287.57C391.02 272.65 381.27 262.83 360.33 256.67" id="d88X7AY47"></path><path d="M360.33 256.67C346.36 252.59 339.07 250.19 339.07 244.48C339.07 236.69 348.03 236.08 350.77 236.08C360.8 236.08 367.7 241.41 368.35 249.66C368.35 249.72 368.38 250.01 368.42 250.54C371.34 250.01 394.66 245.81 397.58 245.28C397.52 244.83 397.49 244.58 397.49 244.53C394.93 224.56 377.86 212.64 351.82 212.64C326.37 212.64 309.92 226.2 309.92 247.19C309.92 268.59 327.87 275.37 344.68 280.05C354.91 282.95 361.72 285.95 361.72 291.18C361.72 299.95 351.15 300.63 347.91 300.63C339.18 300.63 329.74 296.72 329.43 285.74C329.43 285.68 329.42 285.38 329.41 284.85C326.5 285.23 303.19 288.3 300.28 288.68C300.28 289.1 300.28 289.33 300.28 289.37C300.28 313.32 324.27 324.22 346.55 324.22C368.69 324.22 391.02 312.89 391.02 287.57C391.02 272.65 381.27 262.83 360.33 256.67" id="f7YxOiSQXY"></path><path d="M360.33 256.67C346.36 252.59 339.07 250.19 339.07 244.48C339.07 236.69 348.03 236.08 350.77 236.08C360.8 236.08 367.7 241.41 368.35 249.66C368.35 249.72 368.38 250.01 368.42 250.54C371.34 250.01 394.66 245.81 397.58 245.28C397.52 244.83 397.49 244.58 397.49 244.53C394.93 224.56 377.86 212.64 351.82 212.64C326.37 212.64 309.92 226.2 309.92 247.19C309.92 268.59 327.87 275.37 344.68 280.05C354.91 282.95 361.72 285.95 361.72 291.18C361.72 299.95 351.15 300.63 347.91 300.63C339.18 300.63 329.74 296.72 329.43 285.74C329.43 285.68 329.42 285.38 329.41 284.85C326.5 285.23 303.19 288.3 300.28 288.68C300.28 289.1 300.28 289.33 300.28 289.37C300.28 313.32 324.27 324.22 346.55 324.22C368.69 324.22 391.02 312.89 391.02 287.57C391.02 272.65 381.27 262.83 360.33 256.67" id="a19h9F0GI4"></path></defs><g><g><g><use xlink:href="#fwuWdkh4" opacity="1" fill="#fffbfb" fill-opacity="1"></use><g><use xlink:href="#fwuWdkh4" opacity="1" fill-opacity="0" stroke="#000000" stroke-width="1" stroke-opacity="0"></use></g></g><g><use xlink:href="#aH1XNfBiK" opacity="1" fill="#fffbfb" fill-opacity="1"></use><g><use xlink:href="#aH1XNfBiK" opacity="1" fill-opacity="0" stroke="#000000" stroke-width="1" stroke-opacity="0"></use></g></g><g><use xlink:href="#eRamtUwYC" opacity="1" fill="#fffbfb" fill-opacity="1"></use><g><use xlink:href="#eRamtUwYC" opacity="1" fill-opacity="0" stroke="#000000" stroke-width="1" stroke-opacity="0"></use></g></g><g><use xlink:href="#b10I3vHGev" opacity="1" fill="#fffbfb" fill-opacity="1"></use><g><use xlink:href="#b10I3vHGev" opacity="1" fill-opacity="0" stroke="#000000" stroke-width="1" stroke-opacity="0"></use></g></g><g><use xlink:href="#iFL4DbBEU" opacity="1" fill="#fffbfb" fill-opacity="1"></use><g><use xlink:href="#iFL4DbBEU" opacity="1" fill-opacity="0" stroke="#000000" stroke-width="1" stroke-opacity="0"></use></g></g><g><use xlink:href="#a1uBJrrKWC" opacity="1" fill="#fffbfb" fill-opacity="1"></use><g><use xlink:href="#a1uBJrrKWC" opacity="1" fill-opacity="0" stroke="#000000" stroke-width="1" stroke-opacity="0"></use></g></g><g><use xlink:href="#d4wlNDoab3" opacity="1" fill="#fffbfb" fill-opacity="1"></use><g><use xlink:href="#d4wlNDoab3" opacity="1" fill-opacity="0" stroke="#000000" stroke-width="1" stroke-opacity="0"></use></g></g><g><use xlink:href="#a4Z7hpKem" opacity="1" fill="#fffbfb" fill-opacity="1"></use><g><use xlink:href="#a4Z7hpKem" opacity="1" fill-opacity="0" stroke="#000000" stroke-width="1" stroke-opacity="0"></use></g></g><g><use xlink:href="#b2MbUeFofy" opacity="1" fill="#fffbfb" fill-opacity="1"></use><g><use xlink:href="#b2MbUeFofy" opacity="1" fill-opacity="0" stroke="#000000" stroke-width="1" stroke-opacity="0"></use></g></g><g><use xlink:href="#d88X7AY47" opacity="1" fill="#fffbfb" fill-opacity="1"></use><g><use xlink:href="#d88X7AY47" opacity="1" fill-opacity="0" stroke="#000000" stroke-width="1" stroke-opacity="0"></use></g></g><g><use xlink:href="#f7YxOiSQXY" opacity="1" fill="#fffbfb" fill-opacity="1"></use><g><use xlink:href="#f7YxOiSQXY" opacity="1" fill-opacity="0" stroke="#000000" stroke-width="1" stroke-opacity="0"></use></g></g><g><use xlink:href="#a19h9F0GI4" opacity="1" fill="#fffbfb" fill-opacity="1"></use><g><use xlink:href="#a19h9F0GI4" opacity="1" fill-opacity="0" stroke="#000000" stroke-width="1" stroke-opacity="0"></use></g></g></g></g></svg>