<?xml version="1.0" encoding="UTF-8" standalone="no"?>
<!DOCTYPE svg PUBLIC "-//W3C//DTD SVG 1.1//EN" "http://www.w3.org/Graphics/SVG/1.1/DTD/svg11.dtd">
<svg version="1.1" xmlns="http://www.w3.org/2000/svg" xmlns:xlink="http://www.w3.org/1999/xlink" preserveAspectRatio="xMidYMid meet" viewBox="0 0 640 640" width="640" height="640"><defs><path d="M299.76 97.71L299.76 19.25L381.15 19.25L381.15 97.71L299.76 97.71Z" id="b1098tvg7"></path><clipPath id="clipbbiQCcZjY"><use xlink:href="#b1098tvg7" opacity="1"></use></clipPath><path d="M299.76 97.71L299.76 19.25L381.15 19.25L381.15 97.71L299.76 97.71Z" id="aMfsXYPPF"></path><clipPath id="clipjM3FMbDXn"><use xlink:href="#aMfsXYPPF" opacity="1"></use></clipPath><path d="M299.76 97.71L299.76 19.25L381.15 19.25L381.15 97.71L299.76 97.71Z" id="bhDgzKb8j"></path><clipPath id="clipa7wd0RnqO"><use xlink:href="#bhDgzKb8j" opacity="1"></use></clipPath><path d="M299.76 97.71L299.76 19.25L381.15 19.25L381.15 97.71L299.76 97.71Z" id="e2AzCxofHk"></path><clipPath id="clipa5hRmo1n7l"><use xlink:href="#e2AzCxofHk" opacity="1"></use></clipPath><path d="M147.4 66.78C149.25 63.22 156.2 49.66 159.07 43.16C159.65 49.84 161.74 63.54 162.26 66.78C159.27 66.78 148.89 66.78 147.4 66.78ZM138.51 83.41L164.9 83.41L167.8 100.07L190.41 100.07L175.47 21.1L175.35 20.61L150.61 20.61L106.48 100.07L129.54 100.07L138.51 83.41Z" id="d6kWN81Do"></path><clipPath id="clipb1s17w2du"><use xlink:href="#d6kWN81Do" opacity="1"></use></clipPath><path d="M147.4 66.78C149.25 63.22 156.2 49.66 159.07 43.16C159.65 49.84 161.74 63.54 162.26 66.78C159.27 66.78 148.89 66.78 147.4 66.78ZM138.51 83.41L164.9 83.41L167.8 100.07L190.41 100.07L175.47 21.1L175.35 20.61L150.61 20.61L106.48 100.07L129.54 100.07L138.51 83.41Z" id="aDB4clIc9"></path><clipPath id="clipeyPVBKNB3"><use xlink:href="#aDB4clIc9" opacity="1"></use></clipPath><path d="M147.4 66.78C149.25 63.22 156.2 49.66 159.07 43.16C159.65 49.84 161.74 63.54 162.26 66.78C159.27 66.78 148.89 66.78 147.4 66.78ZM138.51 83.41L164.9 83.41L167.8 100.07L190.41 100.07L175.47 21.1L175.35 20.61L150.61 20.61L106.48 100.07L129.54 100.07L138.51 83.41Z" id="a9kPXaouM"></path><clipPath id="clipe1xJWPeoAU"><use xlink:href="#a9kPXaouM" opacity="1"></use></clipPath><path d="M147.4 66.78C149.25 63.22 156.2 49.66 159.07 43.16C159.65 49.84 161.74 63.54 162.26 66.78C159.27 66.78 148.89 66.78 147.4 66.78ZM138.51 83.41L164.9 83.41L167.8 100.07L190.41 100.07L175.47 21.1L175.35 20.61L150.61 20.61L106.48 100.07L129.54 100.07L138.51 83.41Z" id="a2ETUFpWIg"></path><clipPath id="clipe7AYRJuDKv"><use xlink:href="#a2ETUFpWIg" opacity="1"></use></clipPath><path d="M147.4 66.78C149.25 63.22 156.2 49.66 159.07 43.16C159.65 49.84 161.74 63.54 162.26 66.78C159.27 66.78 148.89 66.78 147.4 66.78ZM138.51 83.41L164.9 83.41L167.8 100.07L190.41 100.07L175.47 21.1L175.35 20.61L150.61 20.61L106.48 100.07L129.54 100.07L138.51 83.41Z" id="b2knTW1fiK"></path><clipPath id="clipb2lTyXCBaj"><use xlink:href="#b2knTW1fiK" opacity="1"></use></clipPath><path d="M147.4 66.78C149.25 63.22 156.2 49.66 159.07 43.16C159.65 49.84 161.74 63.54 162.26 66.78C159.27 66.78 148.89 66.78 147.4 66.78ZM138.51 83.41L164.9 83.41L167.8 100.07L190.41 100.07L175.47 21.1L175.35 20.61L150.61 20.61L106.48 100.07L129.54 100.07L138.51 83.41Z" id="c3MjfboBi4"></path><clipPath id="clipa4MsQYOfY"><use xlink:href="#c3MjfboBi4" opacity="1"></use></clipPath><path d="M147.4 66.78C149.25 63.22 156.2 49.66 159.07 43.16C159.65 49.84 161.74 63.54 162.26 66.78C159.27 66.78 148.89 66.78 147.4 66.78ZM138.51 83.41L164.9 83.41L167.8 100.07L190.41 100.07L175.47 21.1L175.35 20.61L150.61 20.61L106.48 100.07L129.54 100.07L138.51 83.41Z" id="a2bVtEJzyX"></path><clipPath id="clipc2EXppqX"><use xlink:href="#a2bVtEJzyX" opacity="1"></use></clipPath><path d="M147.4 66.78C149.25 63.22 156.2 49.66 159.07 43.16C159.65 49.84 161.74 63.54 162.26 66.78C159.27 66.78 148.89 66.78 147.4 66.78ZM138.51 83.41L164.9 83.41L167.8 100.07L190.41 100.07L175.47 21.1L175.35 20.61L150.61 20.61L106.48 100.07L129.54 100.07L138.51 83.41Z" id="b6tzGFcFvx"></path><clipPath id="cliphXjRscv9a"><use xlink:href="#b6tzGFcFvx" opacity="1"></use></clipPath><path d="M56.6 19.25C55.11 19.25 47.7 19.25 34.37 19.25C32.91 27.2 21.26 90.76 19.8 98.71C32.67 98.71 39.79 98.71 41.23 98.71C46.36 70.75 49.19 55.22 49.76 52.13C54.15 63.45 69.35 97.97 69.52 98.34C69.52 98.36 69.56 98.5 69.66 98.71C71.15 98.71 78.55 98.71 91.91 98.71C92.87 93.46 97.68 67.19 106.34 19.92C106.35 19.85 106.47 19.32 106.48 19.25C93.63 19.25 86.49 19.25 85.07 19.25C79.82 48.2 77.02 63.7 76.64 65.76C72.44 54.58 56.93 19.96 56.76 19.59C56.76 19.57 56.72 19.48 56.6 19.25Z" id="b55iM7Jbl"></path><clipPath id="clipb1kMrPfEfO"><use xlink:href="#b55iM7Jbl" opacity="1"></use></clipPath><path d="M56.6 19.25C55.11 19.25 47.7 19.25 34.37 19.25C32.91 27.2 21.26 90.76 19.8 98.71C32.67 98.71 39.79 98.71 41.23 98.71C46.36 70.75 49.19 55.22 49.76 52.13C54.15 63.45 69.35 97.97 69.52 98.34C69.52 98.36 69.56 98.5 69.66 98.71C71.15 98.71 78.55 98.71 91.91 98.71C92.87 93.46 97.68 67.19 106.34 19.92C106.35 19.85 106.47 19.32 106.48 19.25C93.63 19.25 86.49 19.25 85.07 19.25C79.82 48.2 77.02 63.7 76.64 65.76C72.44 54.58 56.93 19.96 56.76 19.59C56.76 19.57 56.72 19.48 56.6 19.25Z" id="g2HsFGYf"></path><clipPath id="clipa6k6O2NFR4"><use xlink:href="#g2HsFGYf" opacity="1"></use></clipPath><path d="M56.6 19.25C55.11 19.25 47.7 19.25 34.37 19.25C32.91 27.2 21.26 90.76 19.8 98.71C32.67 98.71 39.79 98.71 41.23 98.71C46.36 70.75 49.19 55.22 49.76 52.13C54.15 63.45 69.35 97.97 69.52 98.34C69.52 98.36 69.56 98.5 69.66 98.71C71.15 98.71 78.55 98.71 91.91 98.71C92.87 93.46 97.68 67.19 106.34 19.92C106.35 19.85 106.47 19.32 106.48 19.25C93.63 19.25 86.49 19.25 85.07 19.25C79.82 48.2 77.02 63.7 76.64 65.76C72.44 54.58 56.93 19.96 56.76 19.59C56.76 19.57 56.72 19.48 56.6 19.25Z" id="admXIiYeR"></path><clipPath id="clipc18PPOjVm"><use xlink:href="#admXIiYeR" opacity="1"></use></clipPath><path d="M56.6 19.25C55.11 19.25 47.7 19.25 34.37 19.25C32.91 27.2 21.26 90.76 19.8 98.71C32.67 98.71 39.79 98.71 41.23 98.71C46.36 70.75 49.19 55.22 49.76 52.13C54.15 63.45 69.35 97.97 69.52 98.34C69.52 98.36 69.56 98.5 69.66 98.71C71.15 98.71 78.55 98.71 91.91 98.71C92.87 93.46 97.68 67.19 106.34 19.92C106.35 19.85 106.47 19.32 106.48 19.25C93.63 19.25 86.49 19.25 85.07 19.25C79.82 48.2 77.02 63.7 76.64 65.76C72.44 54.58 56.93 19.96 56.76 19.59C56.76 19.57 56.72 19.48 56.6 19.25Z" id="b5nDPqYXK"></path><clipPath id="clipbIIZ7qYb2"><use xlink:href="#b5nDPqYXK" opacity="1"></use></clipPath><path d="M56.6 19.25C55.11 19.25 47.7 19.25 34.37 19.25C32.91 27.2 21.26 90.76 19.8 98.71C32.67 98.71 39.79 98.71 41.23 98.71C46.36 70.75 49.19 55.22 49.76 52.13C54.15 63.45 69.35 97.97 69.52 98.34C69.52 98.36 69.56 98.5 69.66 98.71C71.15 98.71 78.55 98.71 91.91 98.71C92.87 93.46 97.68 67.19 106.34 19.92C106.35 19.85 106.47 19.32 106.48 19.25C93.63 19.25 86.49 19.25 85.07 19.25C79.82 48.2 77.02 63.7 76.64 65.76C72.44 54.58 56.93 19.96 56.76 19.59C56.76 19.57 56.72 19.48 56.6 19.25Z" id="c2LV85kjes"></path><clipPath id="clipdOBhZJ1u0"><use xlink:href="#c2LV85kjes" opacity="1"></use></clipPath><path d="M56.6 19.25C55.11 19.25 47.7 19.25 34.37 19.25C32.91 27.2 21.26 90.76 19.8 98.71C32.67 98.71 39.79 98.71 41.23 98.71C46.36 70.75 49.19 55.22 49.76 52.13C54.15 63.45 69.35 97.97 69.52 98.34C69.52 98.36 69.56 98.5 69.66 98.71C71.15 98.71 78.55 98.71 91.91 98.71C92.87 93.46 97.68 67.19 106.34 19.92C106.35 19.85 106.47 19.32 106.48 19.25C93.63 19.25 86.49 19.25 85.07 19.25C79.82 48.2 77.02 63.7 76.64 65.76C72.44 54.58 56.93 19.96 56.76 19.59C56.76 19.57 56.72 19.48 56.6 19.25Z" id="c1Guu8g2m9"></path><clipPath id="clipfevkAdreG"><use xlink:href="#c1Guu8g2m9" opacity="1"></use></clipPath><path d="M56.6 19.25C55.11 19.25 47.7 19.25 34.37 19.25C32.91 27.2 21.26 90.76 19.8 98.71C32.67 98.71 39.79 98.71 41.23 98.71C46.36 70.75 49.19 55.22 49.76 52.13C54.15 63.45 69.35 97.97 69.52 98.34C69.52 98.36 69.56 98.5 69.66 98.71C71.15 98.71 78.55 98.71 91.91 98.71C92.87 93.46 97.68 67.19 106.34 19.92C106.35 19.85 106.47 19.32 106.48 19.25C93.63 19.25 86.49 19.25 85.07 19.25C79.82 48.2 77.02 63.7 76.64 65.76C72.44 54.58 56.93 19.96 56.76 19.59C56.76 19.57 56.72 19.48 56.6 19.25Z" id="emOdj09K5"></path><clipPath id="clipafPeZ324p"><use xlink:href="#emOdj09K5" opacity="1"></use></clipPath><path d="M56.6 19.25C55.11 19.25 47.7 19.25 34.37 19.25C32.91 27.2 21.26 90.76 19.8 98.71C32.67 98.71 39.79 98.71 41.23 98.71C46.36 70.75 49.19 55.22 49.76 52.13C54.15 63.45 69.35 97.97 69.52 98.34C69.52 98.36 69.56 98.5 69.66 98.71C71.15 98.71 78.55 98.71 91.91 98.71C92.87 93.46 97.68 67.19 106.34 19.92C106.35 19.85 106.47 19.32 106.48 19.25C93.63 19.25 86.49 19.25 85.07 19.25C79.82 48.2 77.02 63.7 76.64 65.76C72.44 54.58 56.93 19.96 56.76 19.59C56.76 19.57 56.72 19.48 56.6 19.25Z" id="cqR0OUTZC"></path><clipPath id="clipcqaZcO9af"><use xlink:href="#cqR0OUTZC" opacity="1"></use></clipPath><path d="M256.06 50.74C245.25 47.71 239.59 45.94 239.59 41.71C239.59 35.91 246.55 35.45 248.68 35.45C256.42 35.45 261.74 39.4 262.25 45.54C262.25 45.57 262.3 45.8 262.32 46.19C264.55 45.82 282.62 42.68 284.88 42.28C284.85 41.96 284.83 41.75 284.83 41.73C282.84 26.92 269.61 18.07 249.49 18.07C229.79 18.07 217.04 28.12 217.04 43.72C217.04 59.59 230.94 64.63 243.96 68.09C251.87 70.24 257.14 72.46 257.14 76.36C257.14 82.86 248.94 83.37 246.45 83.37C239.69 83.37 232.4 80.48 232.14 72.3C232.14 72.28 232.14 72.07 232.12 71.65C229.86 71.95 211.81 74.22 209.58 74.49C209.58 74.82 209.58 74.98 209.58 75C209.58 92.79 228.16 100.88 245.4 100.88C262.54 100.88 279.79 92.45 279.79 73.68C279.79 62.59 272.27 55.32 256.06 50.74" id="azOlFxROx"></path><clipPath id="cliph4XjzDaQmu"><use xlink:href="#azOlFxROx" opacity="1"></use></clipPath><path d="M256.06 50.74C245.25 47.71 239.59 45.94 239.59 41.71C239.59 35.91 246.55 35.45 248.68 35.45C256.42 35.45 261.74 39.4 262.25 45.54C262.25 45.57 262.3 45.8 262.32 46.19C264.55 45.82 282.62 42.68 284.88 42.28C284.85 41.96 284.83 41.75 284.83 41.73C282.84 26.92 269.61 18.07 249.49 18.07C229.79 18.07 217.04 28.12 217.04 43.72C217.04 59.59 230.94 64.63 243.96 68.09C251.87 70.24 257.14 72.46 257.14 76.36C257.14 82.86 248.94 83.37 246.45 83.37C239.69 83.37 232.4 80.48 232.14 72.3C232.14 72.28 232.14 72.07 232.12 71.65C229.86 71.95 211.81 74.22 209.58 74.49C209.58 74.82 209.58 74.98 209.58 75C209.58 92.79 228.16 100.88 245.4 100.88C262.54 100.88 279.79 92.45 279.79 73.68C279.79 62.59 272.27 55.32 256.06 50.74" id="b58mq3FGL"></path><clipPath id="clipd1nR7a0O6f"><use xlink:href="#b58mq3FGL" opacity="1"></use></clipPath><path d="M256.06 50.74C245.25 47.71 239.59 45.94 239.59 41.71C239.59 35.91 246.55 35.45 248.68 35.45C256.42 35.45 261.74 39.4 262.25 45.54C262.25 45.57 262.3 45.8 262.32 46.19C264.55 45.82 282.62 42.68 284.88 42.28C284.85 41.96 284.83 41.75 284.83 41.73C282.84 26.92 269.61 18.07 249.49 18.07C229.79 18.07 217.04 28.12 217.04 43.72C217.04 59.59 230.94 64.63 243.96 68.09C251.87 70.24 257.14 72.46 257.14 76.36C257.14 82.86 248.94 83.37 246.45 83.37C239.69 83.37 232.4 80.48 232.14 72.3C232.14 72.28 232.14 72.07 232.12 71.65C229.86 71.95 211.81 74.22 209.58 74.49C209.58 74.82 209.58 74.98 209.58 75C209.58 92.79 228.16 100.88 245.4 100.88C262.54 100.88 279.79 92.45 279.79 73.68C279.79 62.59 272.27 55.32 256.06 50.74" id="b3AfYsRKbf"></path><clipPath id="clipjd45wJURI"><use xlink:href="#b3AfYsRKbf" opacity="1"></use></clipPath><path d="M256.06 50.74C245.25 47.71 239.59 45.94 239.59 41.71C239.59 35.91 246.55 35.45 248.68 35.45C256.42 35.45 261.74 39.4 262.25 45.54C262.25 45.57 262.3 45.8 262.32 46.19C264.55 45.82 282.62 42.68 284.88 42.28C284.85 41.96 284.83 41.75 284.83 41.73C282.84 26.92 269.61 18.07 249.49 18.07C229.79 18.07 217.04 28.12 217.04 43.72C217.04 59.59 230.94 64.63 243.96 68.09C251.87 70.24 257.14 72.46 257.14 76.36C257.14 82.86 248.94 83.37 246.45 83.37C239.69 83.37 232.4 80.48 232.14 72.3C232.14 72.28 232.14 72.07 232.12 71.65C229.86 71.95 211.81 74.22 209.58 74.49C209.58 74.82 209.58 74.98 209.58 75C209.58 92.79 228.16 100.88 245.4 100.88C262.54 100.88 279.79 92.45 279.79 73.68C279.79 62.59 272.27 55.32 256.06 50.74" id="e2siDWUll7"></path><clipPath id="clipc4YihUs79A"><use xlink:href="#e2siDWUll7" opacity="1"></use></clipPath><path d="M256.06 50.74C245.25 47.71 239.59 45.94 239.59 41.71C239.59 35.91 246.55 35.45 248.68 35.45C256.42 35.45 261.74 39.4 262.25 45.54C262.25 45.57 262.3 45.8 262.32 46.19C264.55 45.82 282.62 42.68 284.88 42.28C284.85 41.96 284.83 41.75 284.83 41.73C282.84 26.92 269.61 18.07 249.49 18.07C229.79 18.07 217.04 28.12 217.04 43.72C217.04 59.59 230.94 64.63 243.96 68.09C251.87 70.24 257.14 72.46 257.14 76.36C257.14 82.86 248.94 83.37 246.45 83.37C239.69 83.37 232.4 80.48 232.14 72.3C232.14 72.28 232.14 72.07 232.12 71.65C229.86 71.95 211.81 74.22 209.58 74.49C209.58 74.82 209.58 74.98 209.58 75C209.58 92.79 228.16 100.88 245.4 100.88C262.54 100.88 279.79 92.45 279.79 73.68C279.79 62.59 272.27 55.32 256.06 50.74" id="dv5B6cYni"></path><clipPath id="clipg7bIQkFcXb"><use xlink:href="#dv5B6cYni" opacity="1"></use></clipPath><path d="M256.06 50.74C245.25 47.71 239.59 45.94 239.59 41.71C239.59 35.91 246.55 35.45 248.68 35.45C256.42 35.45 261.74 39.4 262.25 45.54C262.25 45.57 262.3 45.8 262.32 46.19C264.55 45.82 282.62 42.68 284.88 42.28C284.85 41.96 284.83 41.75 284.83 41.73C282.84 26.92 269.61 18.07 249.49 18.07C229.79 18.07 217.04 28.12 217.04 43.72C217.04 59.59 230.94 64.63 243.96 68.09C251.87 70.24 257.14 72.46 257.14 76.36C257.14 82.86 248.94 83.37 246.45 83.37C239.69 83.37 232.4 80.48 232.14 72.3C232.14 72.28 232.14 72.07 232.12 71.65C229.86 71.95 211.81 74.22 209.58 74.49C209.58 74.82 209.58 74.98 209.58 75C209.58 92.79 228.16 100.88 245.4 100.88C262.54 100.88 279.79 92.45 279.79 73.68C279.79 62.59 272.27 55.32 256.06 50.74" id="d1aPJVAzu0"></path><clipPath id="clipapOsONA4t"><use xlink:href="#d1aPJVAzu0" opacity="1"></use></clipPath><path d="M256.06 50.74C245.25 47.71 239.59 45.94 239.59 41.71C239.59 35.91 246.55 35.45 248.68 35.45C256.42 35.45 261.74 39.4 262.25 45.54C262.25 45.57 262.3 45.8 262.32 46.19C264.55 45.82 282.62 42.68 284.88 42.28C284.85 41.96 284.83 41.75 284.83 41.73C282.84 26.92 269.61 18.07 249.49 18.07C229.79 18.07 217.04 28.12 217.04 43.72C217.04 59.59 230.94 64.63 243.96 68.09C251.87 70.24 257.14 72.46 257.14 76.36C257.14 82.86 248.94 83.37 246.45 83.37C239.69 83.37 232.4 80.48 232.14 72.3C232.14 72.28 232.14 72.07 232.12 71.65C229.86 71.95 211.81 74.22 209.58 74.49C209.58 74.82 209.58 74.98 209.58 75C209.58 92.79 228.16 100.88 245.4 100.88C262.54 100.88 279.79 92.45 279.79 73.68C279.79 62.59 272.27 55.32 256.06 50.74" id="aIqBQIo4F"></path><clipPath id="clipd4X2al3MV"><use xlink:href="#aIqBQIo4F" opacity="1"></use></clipPath><path d="M256.06 50.74C245.25 47.71 239.59 45.94 239.59 41.71C239.59 35.91 246.55 35.45 248.68 35.45C256.42 35.45 261.74 39.4 262.25 45.54C262.25 45.57 262.3 45.8 262.32 46.19C264.55 45.82 282.62 42.68 284.88 42.28C284.85 41.96 284.83 41.75 284.83 41.73C282.84 26.92 269.61 18.07 249.49 18.07C229.79 18.07 217.04 28.12 217.04 43.72C217.04 59.59 230.94 64.63 243.96 68.09C251.87 70.24 257.14 72.46 257.14 76.36C257.14 82.86 248.94 83.37 246.45 83.37C239.69 83.37 232.4 80.48 232.14 72.3C232.14 72.28 232.14 72.07 232.12 71.65C229.86 71.95 211.81 74.22 209.58 74.49C209.58 74.82 209.58 74.98 209.58 75C209.58 92.79 228.16 100.88 245.4 100.88C262.54 100.88 279.79 92.45 279.79 73.68C279.79 62.59 272.27 55.32 256.06 50.74" id="b3Df1JLHFL"></path><clipPath id="clipd1ww4K7HtV"><use xlink:href="#b3Df1JLHFL" opacity="1"></use></clipPath></defs><g><g><g><use xlink:href="#b1098tvg7" opacity="1" fill="#000000" fill-opacity="1"></use><g clip-path="url(#clipbbiQCcZjY)"><use xlink:href="#b1098tvg7" opacity="1" fill-opacity="0" stroke="#000000" stroke-width="2" stroke-opacity="0"></use></g></g><g><use xlink:href="#aMfsXYPPF" opacity="1" fill="#000000" fill-opacity="0"></use><g clip-path="url(#clipjM3FMbDXn)"><use xlink:href="#aMfsXYPPF" opacity="1" fill-opacity="0" stroke="#000000" stroke-width="2" stroke-opacity="0"></use></g></g><g><use xlink:href="#bhDgzKb8j" opacity="1" fill="#000000" fill-opacity="0"></use><g clip-path="url(#clipa7wd0RnqO)"><use xlink:href="#bhDgzKb8j" opacity="1" fill-opacity="0" stroke="#000000" stroke-width="2" stroke-opacity="0"></use></g></g><g><use xlink:href="#e2AzCxofHk" opacity="1" fill="#000000" fill-opacity="0"></use><g clip-path="url(#clipa5hRmo1n7l)"><use xlink:href="#e2AzCxofHk" opacity="1" fill-opacity="0" stroke="#000000" stroke-width="2" stroke-opacity="0"></use></g></g><g><use xlink:href="#d6kWN81Do" opacity="1" fill="#232426" fill-opacity="1"></use><g clip-path="url(#clipb1s17w2du)"><use xlink:href="#d6kWN81Do" opacity="1" fill-opacity="0" stroke="#000000" stroke-width="2" stroke-opacity="0"></use></g></g><g><use xlink:href="#aDB4clIc9" opacity="1" fill="#000000" fill-opacity="0"></use><g clip-path="url(#clipeyPVBKNB3)"><use xlink:href="#aDB4clIc9" opacity="1" fill-opacity="0" stroke="#000000" stroke-width="2" stroke-opacity="0"></use></g></g><g><use xlink:href="#a9kPXaouM" opacity="1" fill="#000000" fill-opacity="0"></use><g clip-path="url(#clipe1xJWPeoAU)"><use xlink:href="#a9kPXaouM" opacity="1" fill-opacity="0" stroke="#000000" stroke-width="2" stroke-opacity="0"></use></g></g><g><use xlink:href="#a2ETUFpWIg" opacity="1" fill="#000000" fill-opacity="0"></use><g clip-path="url(#clipe7AYRJuDKv)"><use xlink:href="#a2ETUFpWIg" opacity="1" fill-opacity="0" stroke="#000000" stroke-width="2" stroke-opacity="0"></use></g></g><g><use xlink:href="#b2knTW1fiK" opacity="1" fill="#000000" fill-opacity="0"></use><g clip-path="url(#clipb2lTyXCBaj)"><use xlink:href="#b2knTW1fiK" opacity="1" fill-opacity="0" stroke="#000000" stroke-width="2" stroke-opacity="0"></use></g></g><g><use xlink:href="#c3MjfboBi4" opacity="1" fill="#000000" fill-opacity="0"></use><g clip-path="url(#clipa4MsQYOfY)"><use xlink:href="#c3MjfboBi4" opacity="1" fill-opacity="0" stroke="#000000" stroke-width="2" stroke-opacity="0"></use></g></g><g><use xlink:href="#a2bVtEJzyX" opacity="1" fill="#000000" fill-opacity="0"></use><g clip-path="url(#clipc2EXppqX)"><use xlink:href="#a2bVtEJzyX" opacity="1" fill-opacity="0" stroke="#000000" stroke-width="2" stroke-opacity="0"></use></g></g><g><use xlink:href="#b6tzGFcFvx" opacity="1" fill="#000000" fill-opacity="0"></use><g clip-path="url(#cliphXjRscv9a)"><use xlink:href="#b6tzGFcFvx" opacity="1" fill-opacity="0" stroke="#000000" stroke-width="2" stroke-opacity="0"></use></g></g><g><use xlink:href="#b55iM7Jbl" opacity="1" fill="#232426" fill-opacity="1"></use><g clip-path="url(#clipb1kMrPfEfO)"><use xlink:href="#b55iM7Jbl" opacity="1" fill-opacity="0" stroke="#000000" stroke-width="2" stroke-opacity="0"></use></g></g><g><use xlink:href="#g2HsFGYf" opacity="1" fill="#000000" fill-opacity="0"></use><g clip-path="url(#clipa6k6O2NFR4)"><use xlink:href="#g2HsFGYf" opacity="1" fill-opacity="0" stroke="#000000" stroke-width="2" stroke-opacity="0"></use></g></g><g><use xlink:href="#admXIiYeR" opacity="1" fill="#000000" fill-opacity="0"></use><g clip-path="url(#clipc18PPOjVm)"><use xlink:href="#admXIiYeR" opacity="1" fill-opacity="0" stroke="#000000" stroke-width="2" stroke-opacity="0"></use></g></g><g><use xlink:href="#b5nDPqYXK" opacity="1" fill="#000000" fill-opacity="0"></use><g clip-path="url(#clipbIIZ7qYb2)"><use xlink:href="#b5nDPqYXK" opacity="1" fill-opacity="0" stroke="#000000" stroke-width="2" stroke-opacity="0"></use></g></g><g><use xlink:href="#c2LV85kjes" opacity="1" fill="#000000" fill-opacity="0"></use><g clip-path="url(#clipdOBhZJ1u0)"><use xlink:href="#c2LV85kjes" opacity="1" fill-opacity="0" stroke="#000000" stroke-width="2" stroke-opacity="0"></use></g></g><g><use xlink:href="#c1Guu8g2m9" opacity="1" fill="#000000" fill-opacity="0"></use><g clip-path="url(#clipfevkAdreG)"><use xlink:href="#c1Guu8g2m9" opacity="1" fill-opacity="0" stroke="#000000" stroke-width="2" stroke-opacity="0"></use></g></g><g><use xlink:href="#emOdj09K5" opacity="1" fill="#000000" fill-opacity="0"></use><g clip-path="url(#clipafPeZ324p)"><use xlink:href="#emOdj09K5" opacity="1" fill-opacity="0" stroke="#000000" stroke-width="2" stroke-opacity="0"></use></g></g><g><use xlink:href="#cqR0OUTZC" opacity="1" fill="#000000" fill-opacity="0"></use><g clip-path="url(#clipcqaZcO9af)"><use xlink:href="#cqR0OUTZC" opacity="1" fill-opacity="0" stroke="#000000" stroke-width="2" stroke-opacity="0"></use></g></g><g><use xlink:href="#azOlFxROx" opacity="1" fill="#232426" fill-opacity="1"></use><g clip-path="url(#cliph4XjzDaQmu)"><use xlink:href="#azOlFxROx" opacity="1" fill-opacity="0" stroke="#000000" stroke-width="2" stroke-opacity="0"></use></g></g><g><use xlink:href="#b58mq3FGL" opacity="1" fill="#000000" fill-opacity="0"></use><g clip-path="url(#clipd1nR7a0O6f)"><use xlink:href="#b58mq3FGL" opacity="1" fill-opacity="0" stroke="#000000" stroke-width="2" stroke-opacity="0"></use></g></g><g><use xlink:href="#b3AfYsRKbf" opacity="1" fill="#000000" fill-opacity="0"></use><g clip-path="url(#clipjd45wJURI)"><use xlink:href="#b3AfYsRKbf" opacity="1" fill-opacity="0" stroke="#000000" stroke-width="2" stroke-opacity="0"></use></g></g><g><use xlink:href="#e2siDWUll7" opacity="1" fill="#000000" fill-opacity="0"></use><g clip-path="url(#clipc4YihUs79A)"><use xlink:href="#e2siDWUll7" opacity="1" fill-opacity="0" stroke="#000000" stroke-width="2" stroke-opacity="0"></use></g></g><g><use xlink:href="#dv5B6cYni" opacity="1" fill="#000000" fill-opacity="0"></use><g clip-path="url(#clipg7bIQkFcXb)"><use xlink:href="#dv5B6cYni" opacity="1" fill-opacity="0" stroke="#000000" stroke-width="2" stroke-opacity="0"></use></g></g><g><use xlink:href="#d1aPJVAzu0" opacity="1" fill="#000000" fill-opacity="0"></use><g clip-path="url(#clipapOsONA4t)"><use xlink:href="#d1aPJVAzu0" opacity="1" fill-opacity="0" stroke="#000000" stroke-width="2" stroke-opacity="0"></use></g></g><g><use xlink:href="#aIqBQIo4F" opacity="1" fill="#000000" fill-opacity="0"></use><g clip-path="url(#clipd4X2al3MV)"><use xlink:href="#aIqBQIo4F" opacity="1" fill-opacity="0" stroke="#000000" stroke-width="2" stroke-opacity="0"></use></g></g><g><use xlink:href="#b3Df1JLHFL" opacity="1" fill="#000000" fill-opacity="0"></use><g clip-path="url(#clipd1ww4K7HtV)"><use xlink:href="#b3Df1JLHFL" opacity="1" fill-opacity="0" stroke="#000000" stroke-width="2" stroke-opacity="0"></use></g></g></g></g></svg>